<svg xmlns="http://www.w3.org/2000/svg" viewBox="0 0 71.76 72.7"><defs><style>.cls-1{fill:#050505;}</style></defs><g id="Слой_2" data-name="Слой 2"><g id="Слой_1-2" data-name="Слой 1"><g id="Слой_2-2" data-name="Слой 2"><g id="Слой_1-2-2" data-name="Слой 1-2"><path class="cls-1" d="M34.18,30A5.17,5.17,0,0,1,34,31.46a4.26,4.26,0,0,1-.75,1.41A4.13,4.13,0,0,1,31.86,34a4.33,4.33,0,0,1-2,.44H16.2a2,2,0,0,1-.72-.14,1.84,1.84,0,0,1-.57-.38,1.5,1.5,0,0,1-.38-.58,1.73,1.73,0,0,1-.14-.71V16.38a1.68,1.68,0,0,1,.14-.7,1.88,1.88,0,0,1,.38-.58,1.7,1.7,0,0,1,.57-.39,2,2,0,0,1,.72-.13h12a4.59,4.59,0,0,1,1.42.23,4.51,4.51,0,0,1,1.42.75,4.1,4.1,0,0,1,1.52,3.38v.68a7.08,7.08,0,0,1-.32,2.05,6.67,6.67,0,0,1-1,2.08,6.19,6.19,0,0,1,1.14.9,5.2,5.2,0,0,1,.93,1.21A6.4,6.4,0,0,1,34,27.42a7.31,7.31,0,0,1,.23,1.92Zm-3.59-.69a3.38,3.38,0,0,0-.22-1.26,2.89,2.89,0,0,0-.62-1,2.75,2.75,0,0,0-1-.62,3.46,3.46,0,0,0-1.27-.21H19.42V22.67H25.9a3.68,3.68,0,0,0,1.27-.21,2.67,2.67,0,0,0,1-.62,2.59,2.59,0,0,0,.62-1A3.6,3.6,0,0,0,29,19.62v-.68c0-.52-.25-.77-.74-.77H18V30.79H30.07a.73.73,0,0,0,.25-.08.63.63,0,0,0,.19-.24,1,1,0,0,0,.08-.45Z"/><path class="cls-1" d="M57.08,26.1a8.65,8.65,0,0,1-.63,3.33,8,8,0,0,1-4.36,4.29,8.5,8.5,0,0,1-3.3.63h-9.7a2,2,0,0,1-.72-.14,1.84,1.84,0,0,1-.57-.38,1.5,1.5,0,0,1-.38-.58,2,2,0,0,1-.14-.71V16.38a1.86,1.86,0,0,1,.14-.7,1.88,1.88,0,0,1,.38-.58,1.7,1.7,0,0,1,.57-.39,2,2,0,0,1,.72-.13h9.7a8.67,8.67,0,0,1,3.3.62,7.75,7.75,0,0,1,2.62,1.72,8,8,0,0,1,1.74,2.62,8.56,8.56,0,0,1,.63,3.32Zm-3.6-3.24a5.25,5.25,0,0,0-.33-1.92,4.17,4.17,0,0,0-2.45-2.43,5,5,0,0,0-1.91-.34H40.87V30.79h7.92a5,5,0,0,0,1.91-.34A4.17,4.17,0,0,0,53.15,28a5.25,5.25,0,0,0,.33-1.92Z"/><path class="cls-1" d="M34.18,56.54a1.63,1.63,0,0,1-.14.72,1.86,1.86,0,0,1-.39.57,1.84,1.84,0,0,1-.57.38,1.68,1.68,0,0,1-.7.14,1.89,1.89,0,0,1-.67-.12,1.8,1.8,0,0,1-.61-.4L18,44.12v14H14.39V39.8a1.63,1.63,0,0,1,.31-1,2,2,0,0,1,.79-.67,1.8,1.8,0,0,1,1-.11,1.75,1.75,0,0,1,.93.51L30.59,52.22v-14h3.59Z"/><path class="cls-1" d="M57.08,52.25a6.17,6.17,0,0,1-.27,1.91,6.44,6.44,0,0,1-.71,1.5,4.56,4.56,0,0,1-1,1.1,6,6,0,0,1-1.23.75,6.51,6.51,0,0,1-1.29.43,5.75,5.75,0,0,1-1.24.14H37.45v-3.6H51.3a2.1,2.1,0,0,0,1.61-.6,2.31,2.31,0,0,0,.57-1.63,2.91,2.91,0,0,0-.15-.92,2.19,2.19,0,0,0-.43-.72,1.9,1.9,0,0,0-.69-.46A2.35,2.35,0,0,0,51.3,50H43a6.33,6.33,0,0,1-1.88-.31,5.54,5.54,0,0,1-1.87-1,5.63,5.63,0,0,1-1.44-1.81,6.85,6.85,0,0,1,0-5.47,5.63,5.63,0,0,1,1.44-1.81,5.54,5.54,0,0,1,1.87-1A6.36,6.36,0,0,1,43,38.26H55.27v3.6H43a2,2,0,0,0-1.59.62,2.3,2.3,0,0,0-.58,1.64,2.26,2.26,0,0,0,.58,1.64,2.09,2.09,0,0,0,1.59.6h8.29a6.38,6.38,0,0,1,1.23.16,7.3,7.3,0,0,1,1.29.45,6.72,6.72,0,0,1,1.22.76,5.08,5.08,0,0,1,1,1.12,5.52,5.52,0,0,1,.71,1.49A6.24,6.24,0,0,1,57.08,52.25Z"/><path class="cls-1" d="M71.76,72.7H0V0H71.76ZM1.63,71.07h68.5V1.63H1.63Z"/></g></g></g></g></svg>