<svg width="71.76" height="72.7" xmlns="http://www.w3.org/2000/svg">
 <defs>
  <style>.cls-1{fill:#fff;}</style>
 </defs>
 <g>
  <title>background</title>
  <rect fill="#4c4c4c" id="canvas_background" height="74.7" width="73.76" y="-1" x="-1"/>
 </g>
 <g>
  <title>Layer 1</title>
  <g id="Слой_2">
   <g id="Слой_1-2">
    <path id="svg_1" d="m34.18,30a5,5 0 0 1 -0.18,1.46a4.19,4.19 0 0 1 -0.75,1.41a4.08,4.08 0 0 1 -1.39,1.13a4.32,4.32 0 0 1 -2,0.44l-13.66,0a1.89,1.89 0 0 1 -0.72,-0.14a1.73,1.73 0 0 1 -0.57,-0.38a1.54,1.54 0 0 1 -0.38,-0.58a1.7,1.7 0 0 1 -0.14,-0.71l0,-16.25a1.68,1.68 0 0 1 0.14,-0.7a1.72,1.72 0 0 1 0.38,-0.58a1.75,1.75 0 0 1 0.57,-0.39a1.88,1.88 0 0 1 0.72,-0.13l12,0a4.72,4.72 0 0 1 1.42,0.23a4.52,4.52 0 0 1 1.42,0.75a4.09,4.09 0 0 1 1.52,3.38l0,0.68a7.13,7.13 0 0 1 -0.32,2.05a6.82,6.82 0 0 1 -1,2.08a6.1,6.1 0 0 1 1.14,0.9a5.33,5.33 0 0 1 0.93,1.21a6.45,6.45 0 0 1 0.69,1.56a7.22,7.22 0 0 1 0.23,1.92l-0.05,0.66zm-3.54,-1.35a3.33,3.33 0 0 0 -0.22,-1.26a2.84,2.84 0 0 0 -0.62,-1a2.78,2.78 0 0 0 -1,-0.62a3.6,3.6 0 0 0 -1.27,-0.21l-8.11,0l0,-2.89l6.48,0a3.64,3.64 0 0 0 1.27,-0.21a2.74,2.74 0 0 0 1,-0.62a2.69,2.69 0 0 0 0.62,-1a3.54,3.54 0 0 0 0.21,-1.22l0,-0.68c0,-0.52 -0.25,-0.77 -0.74,-0.77l-10.26,0l0,12.62l12.07,0a0.73,0.73 0 0 0 0.25,-0.08a0.69,0.69 0 0 0 0.19,-0.24a1,1 0 0 0 0.08,-0.45l0.05,-1.37z" class="cls-1"/>
    <path id="svg_2" d="m57.08,26.1a8.66,8.66 0 0 1 -0.63,3.33a7.86,7.86 0 0 1 -1.74,2.57a7.7,7.7 0 0 1 -2.62,1.72a8.51,8.51 0 0 1 -3.3,0.63l-9.7,0a1.89,1.89 0 0 1 -0.72,-0.14a1.73,1.73 0 0 1 -0.57,-0.38a1.67,1.67 0 0 1 -0.38,-0.58a1.87,1.87 0 0 1 -0.14,-0.71l0,-16.16a1.86,1.86 0 0 1 0.14,-0.7a1.88,1.88 0 0 1 0.38,-0.58a1.75,1.75 0 0 1 0.57,-0.39a1.88,1.88 0 0 1 0.72,-0.13l9.7,0a8.51,8.51 0 0 1 3.3,0.62a7.7,7.7 0 0 1 2.62,1.72a7.8,7.8 0 0 1 1.74,2.62a8.65,8.65 0 0 1 0.63,3.32l0,3.24zm-3.6,-6.48a5.37,5.37 0 0 0 -0.33,-1.92a4.16,4.16 0 0 0 -2.45,-2.43a5.07,5.07 0 0 0 -1.91,-0.34l-7.92,0l0,15.86l7.92,0a5.07,5.07 0 0 0 1.91,-0.34a4.16,4.16 0 0 0 2.45,-2.45a5.3,5.3 0 0 0 0.33,-1.92l0,-6.46z" class="cls-1"/>
    <path id="svg_3" d="m34.18,56.54a1.71,1.71 0 0 1 -0.14,0.72a1.92,1.92 0 0 1 -0.39,0.57a1.73,1.73 0 0 1 -0.57,0.38a1.68,1.68 0 0 1 -0.7,0.14a1.93,1.93 0 0 1 -0.67,-0.12a1.75,1.75 0 0 1 -0.61,-0.4l-13.1,-13.71l0,14l-3.61,0l0,-18.32a1.69,1.69 0 0 1 0.31,-1a1.89,1.89 0 0 1 0.79,-0.67a1.8,1.8 0 0 1 1,-0.11a1.72,1.72 0 0 1 0.93,0.51l13.17,13.69l0,-14l3.59,0l0,18.32z" class="cls-1"/>
    <path id="svg_4" d="m57.08,52.25a6.34,6.34 0 0 1 -0.27,1.91a6.11,6.11 0 0 1 -0.71,1.5a4.75,4.75 0 0 1 -1,1.1a6.15,6.15 0 0 1 -1.23,0.75a6.74,6.74 0 0 1 -1.29,0.43a6.2,6.2 0 0 1 -1.24,0.14l-13.89,0l0,-3.6l13.85,0a2.12,2.12 0 0 0 1.61,-0.6a2.3,2.3 0 0 0 0.57,-1.63a2.69,2.69 0 0 0 -0.15,-0.92a2.19,2.19 0 0 0 -0.43,-0.72a1.94,1.94 0 0 0 -0.69,-0.46a2.24,2.24 0 0 0 -0.91,-0.15l-8.3,0a6.31,6.31 0 0 1 -1.88,-0.31a5.65,5.65 0 0 1 -1.87,-1a5.58,5.58 0 0 1 -1.44,-1.81a6,6 0 0 1 -0.57,-2.74a5.93,5.93 0 0 1 0.57,-2.73a5.68,5.68 0 0 1 1.44,-1.81a5.47,5.47 0 0 1 1.87,-1a6.34,6.34 0 0 1 1.88,-0.34l12.27,0l0,3.6l-12.27,0a2,2 0 0 0 -1.59,0.62a2.28,2.28 0 0 0 -0.58,1.64a2.25,2.25 0 0 0 0.58,1.64a2.09,2.09 0 0 0 1.59,0.6l8.29,0a6.11,6.11 0 0 1 1.23,0.16a6.61,6.61 0 0 1 1.29,0.45a6.21,6.21 0 0 1 1.22,0.76a5,5 0 0 1 1,1.12a5.27,5.27 0 0 1 0.71,1.49a6.25,6.25 0 0 1 0.34,1.91z" class="cls-1"/>
    <path id="svg_5" d="m71.76,72.7l-71.76,0l0,-72.7l71.76,0l0,72.7zm-70.13,-1.63l68.5,0l0,-69.44l-68.5,0l0,69.44z" class="cls-1"/>
   </g>
  </g>
 </g>
</svg>